<?xml version="1.0" standalone="no"?><svg xmlns="http://www.w3.org/2000/svg" viewBox="0 0 1440 320"><path fill="#ff5500" fill-opacity="1" d="M0,64L26.7,58.7C53.3,53,107,43,160,58.7C213.3,75,267,117,320,117.3C373.3,117,427,75,480,80C533.3,85,587,139,640,149.3C693.3,160,747,128,800,106.7C853.3,85,907,75,960,74.7C1013.3,75,1067,85,1120,112C1173.3,139,1227,181,1280,176C1333.3,171,1387,117,1413,90.7L1440,64L1440,320L1413.3,320C1386.7,320,1333,320,1280,320C1226.7,320,1173,320,1120,320C1066.7,320,1013,320,960,320C906.7,320,853,320,800,320C746.7,320,693,320,640,320C586.7,320,533,320,480,320C426.7,320,373,320,320,320C266.7,320,213,320,160,320C106.7,320,53,320,27,320L0,320Z"></path></svg>